<svg xmlns="http://www.w3.org/2000/svg" fill="#000000" width="800px" height="800px" viewBox="0 0 24 24" id="folder-alert" class="icon line"><path id="primary" d="M10,10V6a1,1,0,0,0-1-1H4A1,1,0,0,0,3,6V20a1,1,0,0,0,1,1H9" style="fill: none; stroke: rgb(0, 0, 0); stroke-linecap: round; stroke-linejoin: round; stroke-width: 1.5;"/><path id="primary-2" data-name="primary" d="M9,8V4a1,1,0,0,0-1-1H4A1,1,0,0,0,3,4V20a1,1,0,0,0,1,1H9" style="fill: none; stroke: rgb(0, 0, 0); stroke-linecap: round; stroke-linejoin: round; stroke-width: 1.5;"/><path id="primary-3" data-name="primary" d="M8,12h6a1,1,0,0,1,1,1v6a1,1,0,0,1-1,1H17" style="fill: none; stroke: rgb(0, 0, 0); stroke-linecap: round; stroke-linejoin: round; stroke-width: 1.5;"/></svg>