<svg xmlns="http://www.w3.org/2000/svg" fill="#000000" width="800px" height="800px" viewBox="0 0 24 24" id="turn-down-right-direction-octagon" data-name="Line Color" class="icon line-color"><path id="secondary" d="M18,7H6A3,3,0,0,0,6,8H18a3,3,0,0,0,3-3V8A3,3,0,0,0,18,7ZM9,5h7a0,0,0,0,1,0,0v7a0,0,0,0,1,0,0H9A0,0,0,0,1,9,5Z" style="fill: none; stroke: rgb(44, 169, 188); stroke-linecap: round; stroke-linejoin: round; stroke-width: 2;"/><path id="primary" d="M10,9H9A3,3,0,0,0,8,9V8A3,3,0,0,0,9,5Z" style="fill: none; stroke: rgb(0, 0, 0); stroke-linecap: round; stroke-linejoin: round; stroke-width: 2;"/></svg>