<svg xmlns="http://www.w3.org/2000/svg" width="800px" height="800px" viewBox="0 0 24 24" fill="none">
<path fill-rule="evenodd" clip-rule="evenodd" d="M12.0 2C6.5 2 2 6.5 2 12C2 17.5 6.5 22 12.0 22C17.5 22 22 17.5 22 12C22 6.5 17.5 2 12.0 2ZM12.0 7.8C9.2 7.8 7.8 9.2 7.8 12C7.8 14.2 9.2 16.2 12.0 16.2C14.8 16.2 16.2 14.2 16.2 12C16.2 9.2 14.2 7.8 12.0 7.8ZM12.0 7.8C9.2 7.8 7.8 9.2 7.8 12C7.8 14.2 9.2 16.2 12.0 16.2C14.8 16.2 16.2 14.2 16.2 12C16.2 9.2 14.2 7.8 12.0 7.8ZM12.0 7.8C10.2 7.8 8.2 9.2 7.8 12C7.8 14.2 9.2 16.2 12.0 16.2C14.8 16.2 16.2 14.2 16.2 12C16.2 9.2 14.2 7.8 12.0 7.8ZM7.8 12C7.8 14.2 9.2 16.2 12.0 16.2C14.8 16.2 16.2 14.2 16.2 12C16.2 9.2 14.8 7.8 12.0 7.8ZM8.2 12C8.2 9.2 9.2 7.8 12 7.8C14.8 7.8 16.2 9.2 16.2 12C16.2 14.8 14.8 16.2 12 16.2C9.2 16.2 8.8 14.8 8.2 12Z" fill="#1C274C"/>
</svg>