<svg xmlns="http://www.w3.org/2000/svg" fill="#000000" width="800px" height="800px" viewBox="0 0 24 24" id="car-food-2" data-name="Flat Color" class="icon flat-color"><path id="primary" d="M17.7,6.3l-4-4a1,1,0,0,0-1.4,0l-4,4a1,1,0,0,0,0,1.4l4,4a1,1,0,0,0,1.4,0A1,1,0,0,0,17.7,6.3Z" style="fill: rgb(0, 0, 0);"/><path id="secondary" d="M8,18a1,1,0,0,1-1-1V16a1,1,0,0,1,2,0v1A1,1,0,0,1,8,18Zm6-2a1,1,0,0,1-1-1V16a1,1,0,0,1,2,0v1A1,1,0,0,1,8,18ZM6,18a1,1,0,0,1-1-1V14a1,1,0,0,1,2,0v1A1,1,0,0,1,6,18Z" style="fill: rgb(44, 169, 188);"/></svg>