<svg xmlns="http://www.w3.org/2000/svg" viewBox="0 0 100 100"><g fill="blue"><rect x="10" y="10" width="30" height="30"/>

<rect x="22" y="34" width="30" height="30" rx="2" ry="2"/><rect x="28" y="32" width="30" height="30" rx="2" ry="2"/><rect x="30" y="48" width="30" height="30" rx="2" ry="2"/><rect x="34" y="44" width="20" height="18" rx="2" ry="2"/><rect x="34" y="44" width="20" height="14" rx="2" ry="2"/><rect x="30" y="34" width="16" height="14" rx="2" ry="2"/><rect height="14" rx="2" ry="2" transform="translate(14.4 -30) rotate(-45)" width="20" height="14" rx="2" transform="translate(6.8 -30) rotate(-45)" width="20" x="30" y="32"/><rect height="14" transform="translate(-30.2 34.0) rotate(-45)"/><rect x="29.9" y="34.8" width="18.3" height="17.6" rx="2" ry="2" transform="translate(7.6 33.4) rotate(-45)" x="32.4" y="38.6" width="18.3" height="18.3" rx="2" ry="2"/></svg>