<svg xmlns="http://www.w3.org/2000/svg" viewBox="0 0 100 100"><path d="M10 50 Q30 10 50 50 Q70 90 90 50" fill="none" stroke="black" stroke-width="2"/>
<path d="M15.2 41.2a1.8 1.8 0 0 1-1.8 1.2l4.4-3.5a1.8 1.8 0 0 1-1.8-1.7l-4.4-3.5a1.8 1.8 0 0 1-1.8-1.8l4.4 3.5a1.8 1.8 0 0 1-1.8 1.8l-4.4 3.5a1.8 1.8 0 0 1 1.8 1.8l4.4 3.5a1.8 1.8 0 0 1 1.8 1.8l4.4-3.5a1.8 1.8 0 0 1 1.8-1.8l4.4-3.5a1.8 1.8 0 0 1 1.8-1.8l4.4 3.5a1.8 1.8 0 0 1-1.8 1.8z" fill="#ffffff" stroke="#000000" stroke-width="2" stroke-linejoin="round"/>
</svg>