<svg xmlns="http://www.w3.org/2000/svg" viewBox="0 0 100 100"><circle cx="50" cy="50" r="40" fill="none" stroke="black" stroke-width="2"/><circle cx="35" cy="40" r="5" fill="black"/>
  <path fill="#ffffff" stroke-width=".4" d="M50 20v5.8l-29.5-3.7L30 52V51h-10.8l-6.9-6.8L30 50h-2v-5.8L50 22V43h-4v5.8L50 50v5.8l-25.1-3.6L33.4 17l-5.8 6.8v-5.8l7.7 6.8L45 35v5h4l-8.8-6.9l-1.9-4.3L37 44v5.6l-7.7 6.8v5.8l-2 4.6-1.9-5.8L37 36l-10.8 6.8v-5.8l13.2 10.7L15 26h10.8l-2.7-1.9l-3.8-4.3L32 35.1V30h4v-5.8l-10.3 10.3-10.7-10.7L37 15h4l11.8-10.7L41 32v5.8l-3.8-4.3l-3.8 4.3z"/></svg>