<svg xmlns="http://www.w3.org/2000/svg" viewBox="0 0 100 100"><polygon points="50,5 61,35 95,35 68,57" fill="gold" stroke="orange" stroke-width="1"/>
<path d="M82,77 C78.3,77 76,88.7 76,89L73,71L69,72L69,71L73,72L73,72L73,72L71,68L73,72L71,71L71,71L73,71L71,72L73,72L71,74L71,72L73,72L72,72L73,72L72,72L72,72L72,72L72,72L72,72L72,72L72,72L72,72L72,72L72,72L72,72L72,72L72,72L72,72L72,72L72,72L72,72L72,72L72,72L72,72L72,72L72,72L72,72L72,72L72,72L72,72L72,72L72,72L72,72L72,72L72,72L72,72L72,72L72,72L72,72L72,72Z" fill="none"/>
</svg>